<?xml version="1.0" encoding="utf-8"?>
<!-- Generator: Adobe Illustrator 23.0.2, SVG Export Plug-In . SVG Version: 6.00 Build 0)  -->
<svg version="1.1" id="Layer_2" xmlns="http://www.w3.org/2000/svg" xmlns:xlink="http://www.w3.org/1999/xlink" x="0px" y="0px"
	 viewBox="0 0 40 40" style="enable-background:new 0 0 40 40;" xml:space="preserve">
<style type="text/css">
	.st0{fill:none;stroke:#97D1C7;stroke-width:2;stroke-linecap:round;stroke-linejoin:round;stroke-miterlimit:10;}
</style>
<rect x="1" y="1" class="st0" width="38" height="38"/>
<path class="st0" d="M7.8,7.1c-0.2,1.8-0.4,4.4,0,7.5c0.2,1.2,0.9,5.7,3.2,9.6c4.8,8,14.1,10.3,16.1,10.7c1.8-1.1,3.6-2.1,5.4-3.2
	c-1.4-1.8-2.9-3.6-4.3-5.4c-0.9,0.5-2.4,1.2-4.3,1.1c-4.1-0.2-6.6-4-7.5-5.4c-0.9-1.4-4-9.5-3.2-7.5l0,0c0.7-1.4,1.4-2.9,2.1-4.3
	c-1.1-1.8-2.1-3.6-3.2-5.4C10.7,5.7,9.2,6.4,7.8,7.1z"/>
</svg>
