<svg xmlns="http://www.w3.org/2000/svg" width="40" height="40" viewBox="0 0 40 40">
  <g id="Сгруппировать_431" data-name="Сгруппировать 431" transform="translate(-5446 96)">
    <g id="Сгруппировать_430" data-name="Сгруппировать 430">
      <rect id="Прямоугольник_39" data-name="Прямоугольник 39" width="40" height="40" rx="5" transform="translate(5446 -96)" fill="#97c2d1"/>
      <g id="Сгруппировать_429" data-name="Сгруппировать 429" transform="translate(5457 -86)">
        <path id="Контур_52" data-name="Контур 52" d="M168.054,177.229a9.168,9.168,0,0,1-4.584-17.106.833.833,0,0,1,.835,1.442,7.5,7.5,0,1,0,3.749-1,.833.833,0,1,1,0-1.667,9.167,9.167,0,0,1,0,18.334Z" transform="translate(-158.886 -157.229)" fill="#fff"/>
        <path id="Контур_53" data-name="Контур 53" d="M250.215,147.078a.834.834,0,0,1-.625-.281l-2.208-2.5a.834.834,0,0,1,.189-1.263l2.73-1.672a.833.833,0,1,1,.87,1.421l-1.883,1.153,1.55,1.751a.833.833,0,0,1-.624,1.386Z" transform="translate(-238.839 -141.244)" fill="#fff"/>
      </g>
    </g>
  </g>
</svg>
