<svg xmlns="http://www.w3.org/2000/svg" width="200" height="40" viewBox="0 0 200 40">
  <g id="Сгруппировать_427" data-name="Сгруппировать 427" transform="translate(-858 -174)">
    <g id="Прямоугольник_10" data-name="Прямоугольник 10" transform="translate(858 174)" fill="none" stroke="#97bed1" stroke-width="1">
      <rect width="200" height="40" rx="5" stroke="none"/>
      <rect x="0.5" y="0.5" width="199" height="39" rx="4.5" fill="none"/>
    </g>
    <g id="Сгруппировать_21" data-name="Сгруппировать 21" transform="translate(900.222 184.915)">
      <path id="Icon_open-audio-spectrum" data-name="Icon open-audio-spectrum" d="M5.428,0V10.855H6.784V0ZM2.714,1.357V9.5H4.071V1.357ZM8.141,2.714V8.141H9.5V2.714ZM0,4.071V6.784H1.357V4.071Z" transform="translate(0 3.79)" fill="#97bed1"/>
      <path id="Icon_open-audio-spectrum-2" data-name="Icon open-audio-spectrum" d="M5.428,0V17.772H6.784V0ZM2.714,2.221V15.55H4.071V2.221ZM8.141,4.443v8.886H9.5V4.443ZM0,6.664v4.443H1.357V6.664Z" transform="translate(10.855)" fill="#97bed1"/>
      <path id="Icon_open-audio-spectrum-3" data-name="Icon open-audio-spectrum" d="M5.428,0V7.43H6.784V0ZM2.714.929V6.5H4.071V.929Zm5.428.929V5.573H9.5V1.858ZM0,2.786V4.644H1.357V2.786Z" transform="translate(21.238 5.327)" fill="#97bed1"/>
    </g>
    <g id="Сгруппировать_22" data-name="Сгруппировать 22" transform="translate(932.316 184.915)">
      <path id="Icon_open-audio-spectrum-4" data-name="Icon open-audio-spectrum" d="M5.428,0V10.855H6.784V0ZM2.714,1.357V9.5H4.071V1.357ZM8.141,2.714V8.141H9.5V2.714ZM0,4.071V6.784H1.357V4.071Z" transform="translate(0 3.79)" fill="#97bed1"/>
      <path id="Icon_open-audio-spectrum-5" data-name="Icon open-audio-spectrum" d="M5.428,0V17.772H6.784V0ZM2.714,2.221V15.55H4.071V2.221ZM8.141,4.443v8.886H9.5V4.443ZM0,6.664v4.443H1.357V6.664Z" transform="translate(10.855)" fill="#97bed1"/>
      <path id="Icon_open-audio-spectrum-6" data-name="Icon open-audio-spectrum" d="M5.428,0V7.43H6.784V0ZM2.714.929V6.5H4.071V.929Zm5.428.929V5.573H9.5V1.858ZM0,2.786V4.644H1.357V2.786Z" transform="translate(21.238 5.327)" fill="#97bed1"/>
    </g>
    <g id="Сгруппировать_23" data-name="Сгруппировать 23" transform="translate(963.938 184.915)">
      <path id="Icon_open-audio-spectrum-7" data-name="Icon open-audio-spectrum" d="M5.428,0V10.855H6.784V0ZM2.714,1.357V9.5H4.071V1.357ZM8.141,2.714V8.141H9.5V2.714ZM0,4.071V6.784H1.357V4.071Z" transform="translate(0 3.79)" fill="#97bed1"/>
      <path id="Icon_open-audio-spectrum-8" data-name="Icon open-audio-spectrum" d="M5.428,0V17.772H6.784V0ZM2.714,2.221V15.55H4.071V2.221ZM8.141,4.443v8.886H9.5V4.443ZM0,6.664v4.443H1.357V6.664Z" transform="translate(10.855)" fill="#97bed1"/>
      <path id="Icon_open-audio-spectrum-9" data-name="Icon open-audio-spectrum" d="M5.428,0V7.43H6.784V0ZM2.714.929V6.5H4.071V.929Zm5.428.929V5.573H9.5V1.858ZM0,2.786V4.644H1.357V2.786Z" transform="translate(21.238 5.327)" fill="#97bed1"/>
    </g>
    <g id="Сгруппировать_24" data-name="Сгруппировать 24" transform="translate(996.031 184.915)">
      <path id="Icon_open-audio-spectrum-10" data-name="Icon open-audio-spectrum" d="M5.428,0V10.855H6.784V0ZM2.714,1.357V9.5H4.071V1.357ZM8.141,2.714V8.141H9.5V2.714ZM0,4.071V6.784H1.357V4.071Z" transform="translate(0 3.79)" fill="#97bed1"/>
      <path id="Icon_open-audio-spectrum-11" data-name="Icon open-audio-spectrum" d="M5.428,0V17.772H6.784V0ZM2.714,2.221V15.55H4.071V2.221ZM8.141,4.443v8.886H9.5V4.443ZM0,6.664v4.443H1.357V6.664Z" transform="translate(10.855)" fill="#97bed1"/>
      <path id="Icon_open-audio-spectrum-12" data-name="Icon open-audio-spectrum" d="M5.428,0V7.43H6.784V0ZM2.714.929V6.5H4.071V.929Zm5.428.929V5.573H9.5V1.858ZM0,2.786V4.644H1.357V2.786Z" transform="translate(21.238 5.327)" fill="#97bed1"/>
    </g>
    <path id="Icon_material-delete-forever" data-name="Icon material-delete-forever" d="M8.389,18.722A1.783,1.783,0,0,0,10.167,20.5h7.111a1.783,1.783,0,0,0,1.778-1.778V8.056H8.389Zm2.187-6.329,1.253-1.253,1.893,1.884,1.884-1.884,1.253,1.253-1.884,1.884,1.884,1.884-1.253,1.253-1.884-1.884-1.884,1.884-1.253-1.253,1.884-1.884Zm6.258-7L15.944,4.5H11.5l-.889.889H7.5V7.167H19.944V5.389Z" transform="translate(1027.6 181)" fill="#abd3cb"/>
    <path id="Icon_ionic-ios-play-circle" data-name="Icon ionic-ios-play-circle" d="M12.375,3.375a9,9,0,1,0,9,9A9,9,0,0,0,12.375,3.375ZM16,12.544l-5.937,3.591a.193.193,0,0,1-.29-.169V8.784a.192.192,0,0,1,.29-.169L16,12.206A.2.2,0,0,1,16,12.544Z" transform="translate(864.55 181)" fill="#97bed1"/>
  </g>
</svg>
