<svg xmlns="http://www.w3.org/2000/svg" width="357.125" height="37.655" viewBox="0 0 357.125 37.655">
  <g id="Сгруппировать_25" data-name="Сгруппировать 25" transform="translate(-1259.25 -367.345)">
    <g id="Сгруппировать_20" data-name="Сгруппировать 20">
      <path id="Icon_open-audio-spectrum" data-name="Icon open-audio-spectrum" d="M11.5,0V23h2.875V0ZM5.75,2.875v17.25H8.625V2.875ZM17.25,5.75v11.5h2.875V5.75ZM0,8.625v5.75H2.875V8.625Z" transform="translate(1259.25 375.375)"/>
      <path id="Icon_open-audio-spectrum-2" data-name="Icon open-audio-spectrum" d="M11.5,0V37.655h2.875V0ZM5.75,4.707V32.948H8.625V4.707Zm11.5,4.707V28.241h2.875V9.414ZM0,14.12v9.414H2.875V14.12Z" transform="translate(1282.25 367.345)"/>
      <path id="Icon_open-audio-spectrum-3" data-name="Icon open-audio-spectrum" d="M11.5,0V15.743h2.875V0ZM5.75,1.968V13.775H8.625V1.968Zm11.5,1.968v7.872h2.875V3.936ZM0,5.9V9.84H2.875V5.9Z" transform="translate(1304.25 378.632)"/>
    </g>
    <g id="Сгруппировать_21" data-name="Сгруппировать 21" transform="translate(67)">
      <path id="Icon_open-audio-spectrum-4" data-name="Icon open-audio-spectrum" d="M11.5,0V23h2.875V0ZM5.75,2.875v17.25H8.625V2.875ZM17.25,5.75v11.5h2.875V5.75ZM0,8.625v5.75H2.875V8.625Z" transform="translate(1259.25 375.375)"/>
      <path id="Icon_open-audio-spectrum-5" data-name="Icon open-audio-spectrum" d="M11.5,0V37.655h2.875V0ZM5.75,4.707V32.948H8.625V4.707Zm11.5,4.707V28.241h2.875V9.414ZM0,14.12v9.414H2.875V14.12Z" transform="translate(1282.25 367.345)"/>
      <path id="Icon_open-audio-spectrum-6" data-name="Icon open-audio-spectrum" d="M11.5,0V15.743h2.875V0ZM5.75,1.968V13.775H8.625V1.968Zm11.5,1.968v7.872h2.875V3.936ZM0,5.9V9.84H2.875V5.9Z" transform="translate(1304.25 378.632)"/>
    </g>
    <g id="Сгруппировать_22" data-name="Сгруппировать 22" transform="translate(135)">
      <path id="Icon_open-audio-spectrum-7" data-name="Icon open-audio-spectrum" d="M11.5,0V23h2.875V0ZM5.75,2.875v17.25H8.625V2.875ZM17.25,5.75v11.5h2.875V5.75ZM0,8.625v5.75H2.875V8.625Z" transform="translate(1259.25 375.375)"/>
      <path id="Icon_open-audio-spectrum-8" data-name="Icon open-audio-spectrum" d="M11.5,0V37.655h2.875V0ZM5.75,4.707V32.948H8.625V4.707Zm11.5,4.707V28.241h2.875V9.414ZM0,14.12v9.414H2.875V14.12Z" transform="translate(1282.25 367.345)"/>
      <path id="Icon_open-audio-spectrum-9" data-name="Icon open-audio-spectrum" d="M11.5,0V15.743h2.875V0ZM5.75,1.968V13.775H8.625V1.968Zm11.5,1.968v7.872h2.875V3.936ZM0,5.9V9.84H2.875V5.9Z" transform="translate(1304.25 378.632)"/>
    </g>
    <g id="Сгруппировать_23" data-name="Сгруппировать 23" transform="translate(202)">
      <path id="Icon_open-audio-spectrum-10" data-name="Icon open-audio-spectrum" d="M11.5,0V23h2.875V0ZM5.75,2.875v17.25H8.625V2.875ZM17.25,5.75v11.5h2.875V5.75ZM0,8.625v5.75H2.875V8.625Z" transform="translate(1259.25 375.375)"/>
      <path id="Icon_open-audio-spectrum-11" data-name="Icon open-audio-spectrum" d="M11.5,0V37.655h2.875V0ZM5.75,4.707V32.948H8.625V4.707Zm11.5,4.707V28.241h2.875V9.414ZM0,14.12v9.414H2.875V14.12Z" transform="translate(1282.25 367.345)"/>
      <path id="Icon_open-audio-spectrum-12" data-name="Icon open-audio-spectrum" d="M11.5,0V15.743h2.875V0ZM5.75,1.968V13.775H8.625V1.968Zm11.5,1.968v7.872h2.875V3.936ZM0,5.9V9.84H2.875V5.9Z" transform="translate(1304.25 378.632)"/>
    </g>
    <g id="Сгруппировать_24" data-name="Сгруппировать 24" transform="translate(270)">
      <path id="Icon_open-audio-spectrum-13" data-name="Icon open-audio-spectrum" d="M11.5,0V23h2.875V0ZM5.75,2.875v17.25H8.625V2.875ZM17.25,5.75v11.5h2.875V5.75ZM0,8.625v5.75H2.875V8.625Z" transform="translate(1259.25 375.375)"/>
      <path id="Icon_open-audio-spectrum-14" data-name="Icon open-audio-spectrum" d="M11.5,0V37.655h2.875V0ZM5.75,4.707V32.948H8.625V4.707Zm11.5,4.707V28.241h2.875V9.414ZM0,14.12v9.414H2.875V14.12Z" transform="translate(1282.25 367.345)"/>
      <path id="Icon_open-audio-spectrum-15" data-name="Icon open-audio-spectrum" d="M11.5,0V15.743h2.875V0ZM5.75,1.968V13.775H8.625V1.968Zm11.5,1.968v7.872h2.875V3.936ZM0,5.9V9.84H2.875V5.9Z" transform="translate(1304.25 378.632)"/>
    </g>
    <path id="Icon_open-audio-spectrum-16" data-name="Icon open-audio-spectrum" d="M11.5,0V23h2.875V0ZM5.75,2.875v17.25H8.625V2.875ZM17.25,5.75v11.5h2.875V5.75ZM0,8.625v5.75H2.875V8.625Z" transform="translate(1596.25 375.375)"/>
  </g>
</svg>
