<svg xmlns="http://www.w3.org/2000/svg" width="28.254" height="20" viewBox="0 0 28.254 20">
  <path id="Icon_open-audio" data-name="Icon open-audio" d="M4.092-.01A13.938,13.938,0,0,0,0,9.9,14.041,14.041,0,0,0,4.092,19.92l2.54-2.54a10.578,10.578,0,0,1-3.1-7.513,10.168,10.168,0,0,1,3.1-7.372L4.092-.045Zm20.071,0-2.54,2.54a10.309,10.309,0,0,1,3.1,7.372,10.555,10.555,0,0,1-3.1,7.513l2.54,2.54A14.188,14.188,0,0,0,28.254,9.937,13.794,13.794,0,0,0,24.162.026ZM9.171,4.964A7.041,7.041,0,0,0,7.09,9.937a7.293,7.293,0,0,0,2.081,5.079l2.434-2.54a3.572,3.572,0,0,1-.988-2.54A3.382,3.382,0,0,1,11.6,7.5L9.171,4.964Zm9.912,0L16.649,7.5a3.323,3.323,0,0,1,.988,2.434,3.572,3.572,0,0,1-.988,2.54l2.434,2.54a7.293,7.293,0,0,0,2.081-5.079,7.041,7.041,0,0,0-2.081-4.974Z" transform="translate(0 0.045)" fill="#fff"/>
</svg>
