<svg xmlns="http://www.w3.org/2000/svg" width="41" height="40" viewBox="0 0 41 40">
  <g id="Сгруппировать_428" data-name="Сгруппировать 428" transform="translate(-284 -379)">
    <rect id="Прямоугольник_38" data-name="Прямоугольник 38" width="41" height="40" rx="5" transform="translate(284 379)" fill="#97c2d1"/>
    <path id="Icon_material-content-cut" data-name="Icon material-content-cut" d="M10.64,8.64A3.9,3.9,0,0,0,11,7a4,4,0,1,0-4,4,3.9,3.9,0,0,0,1.64-.36L11,13,8.64,15.36A3.9,3.9,0,0,0,7,15a4,4,0,1,0,4,4,3.9,3.9,0,0,0-.36-1.64L13,15l7,7h3V21ZM7,9A2,2,0,1,1,9,7,2,2,0,0,1,7,9ZM7,21a2,2,0,1,1,2-2A2,2,0,0,1,7,21Zm6-7.5a.5.5,0,1,1,.5-.5A.5.5,0,0,1,13,13.5ZM20,4l-6,6,2,2,7-7V4Z" transform="translate(291.5 386)" fill="#fff"/>
  </g>
</svg>
