<svg xmlns="http://www.w3.org/2000/svg" width="158.167" height="17.772" viewBox="0 0 158.167 17.772">
  <g id="Сгруппировать_26" data-name="Сгруппировать 26" transform="translate(-856.601 -665.915)">
    <g id="Сгруппировать_20" data-name="Сгруппировать 20" transform="translate(856.601 665.915)">
      <path id="Icon_open-audio-spectrum" data-name="Icon open-audio-spectrum" d="M5.428,0V10.855H6.784V0ZM2.714,1.357V9.5H4.071V1.357ZM8.141,2.714V8.141H9.5V2.714ZM0,4.071V6.784H1.357V4.071Z" transform="translate(0 3.79)" fill="#97bed1"/>
      <path id="Icon_open-audio-spectrum-2" data-name="Icon open-audio-spectrum" d="M5.428,0V17.772H6.784V0ZM2.714,2.221V15.55H4.071V2.221ZM8.141,4.443v8.886H9.5V4.443ZM0,6.664v4.443H1.357V6.664Z" transform="translate(10.855)" fill="#97bed1"/>
      <path id="Icon_open-audio-spectrum-3" data-name="Icon open-audio-spectrum" d="M5.428,0V7.43H6.784V0ZM2.714.929V6.5H4.071V.929Zm5.428.929V5.573H9.5V1.858ZM0,2.786V4.644H1.357V2.786Z" transform="translate(21.238 5.327)" fill="#97bed1"/>
    </g>
    <g id="Сгруппировать_21" data-name="Сгруппировать 21" transform="translate(888.222 665.915)">
      <path id="Icon_open-audio-spectrum-4" data-name="Icon open-audio-spectrum" d="M5.428,0V10.855H6.784V0ZM2.714,1.357V9.5H4.071V1.357ZM8.141,2.714V8.141H9.5V2.714ZM0,4.071V6.784H1.357V4.071Z" transform="translate(0 3.79)" fill="#97bed1"/>
      <path id="Icon_open-audio-spectrum-5" data-name="Icon open-audio-spectrum" d="M5.428,0V17.772H6.784V0ZM2.714,2.221V15.55H4.071V2.221ZM8.141,4.443v8.886H9.5V4.443ZM0,6.664v4.443H1.357V6.664Z" transform="translate(10.855)" fill="#97bed1"/>
      <path id="Icon_open-audio-spectrum-6" data-name="Icon open-audio-spectrum" d="M5.428,0V7.43H6.784V0ZM2.714.929V6.5H4.071V.929Zm5.428.929V5.573H9.5V1.858ZM0,2.786V4.644H1.357V2.786Z" transform="translate(21.238 5.327)" fill="#97bed1"/>
    </g>
    <g id="Сгруппировать_22" data-name="Сгруппировать 22" transform="translate(920.316 665.915)">
      <path id="Icon_open-audio-spectrum-7" data-name="Icon open-audio-spectrum" d="M5.428,0V10.855H6.784V0ZM2.714,1.357V9.5H4.071V1.357ZM8.141,2.714V8.141H9.5V2.714ZM0,4.071V6.784H1.357V4.071Z" transform="translate(0 3.79)" fill="#97bed1"/>
      <path id="Icon_open-audio-spectrum-8" data-name="Icon open-audio-spectrum" d="M5.428,0V17.772H6.784V0ZM2.714,2.221V15.55H4.071V2.221ZM8.141,4.443v8.886H9.5V4.443ZM0,6.664v4.443H1.357V6.664Z" transform="translate(10.855)" fill="#97bed1"/>
      <path id="Icon_open-audio-spectrum-9" data-name="Icon open-audio-spectrum" d="M5.428,0V7.43H6.784V0ZM2.714.929V6.5H4.071V.929Zm5.428.929V5.573H9.5V1.858ZM0,2.786V4.644H1.357V2.786Z" transform="translate(21.238 5.327)" fill="#97bed1"/>
    </g>
    <g id="Сгруппировать_23" data-name="Сгруппировать 23" transform="translate(951.938 665.915)">
      <path id="Icon_open-audio-spectrum-10" data-name="Icon open-audio-spectrum" d="M5.428,0V10.855H6.784V0ZM2.714,1.357V9.5H4.071V1.357ZM8.141,2.714V8.141H9.5V2.714ZM0,4.071V6.784H1.357V4.071Z" transform="translate(0 3.79)" fill="#97bed1"/>
      <path id="Icon_open-audio-spectrum-11" data-name="Icon open-audio-spectrum" d="M5.428,0V17.772H6.784V0ZM2.714,2.221V15.55H4.071V2.221ZM8.141,4.443v8.886H9.5V4.443ZM0,6.664v4.443H1.357V6.664Z" transform="translate(10.855)" fill="#97bed1"/>
      <path id="Icon_open-audio-spectrum-12" data-name="Icon open-audio-spectrum" d="M5.428,0V7.43H6.784V0ZM2.714.929V6.5H4.071V.929Zm5.428.929V5.573H9.5V1.858ZM0,2.786V4.644H1.357V2.786Z" transform="translate(21.238 5.327)" fill="#97bed1"/>
    </g>
    <g id="Сгруппировать_24" data-name="Сгруппировать 24" transform="translate(984.031 665.915)">
      <path id="Icon_open-audio-spectrum-13" data-name="Icon open-audio-spectrum" d="M5.428,0V10.855H6.784V0ZM2.714,1.357V9.5H4.071V1.357ZM8.141,2.714V8.141H9.5V2.714ZM0,4.071V6.784H1.357V4.071Z" transform="translate(0 3.79)" fill="#97bed1"/>
      <path id="Icon_open-audio-spectrum-14" data-name="Icon open-audio-spectrum" d="M5.428,0V17.772H6.784V0ZM2.714,2.221V15.55H4.071V2.221ZM8.141,4.443v8.886H9.5V4.443ZM0,6.664v4.443H1.357V6.664Z" transform="translate(10.855)" fill="#97bed1"/>
      <path id="Icon_open-audio-spectrum-15" data-name="Icon open-audio-spectrum" d="M5.428,0V7.43H6.784V0ZM2.714.929V6.5H4.071V.929Zm5.428.929V5.573H9.5V1.858ZM0,2.786V4.644H1.357V2.786Z" transform="translate(21.238 5.327)" fill="#97bed1"/>
    </g>
  </g>
</svg>
