<svg xmlns="http://www.w3.org/2000/svg" width="1352" height="181" viewBox="0 0 1352 181">
  <g id="Сгруппировать_430" data-name="Сгруппировать 430" transform="translate(-284 -459)">
    <g id="Сгруппировать_429" data-name="Сгруппировать 429">
      <g id="Прямоугольник_10" data-name="Прямоугольник 10" transform="translate(284 459)" fill="none" stroke="#97bed1" stroke-width="1">
        <rect width="1352" height="161" rx="5" stroke="none"/>
        <rect x="0.5" y="0.5" width="1351" height="160" rx="4.5" fill="none"/>
      </g>
      <g id="Сгруппировать_21" data-name="Сгруппировать 21" transform="translate(364.422 479.784)">
        <path id="Icon_open-audio-spectrum" data-name="Icon open-audio-spectrum" d="M36.691,0V73.381h9.173V0ZM18.345,9.173V64.208h9.173V9.173Zm36.691,9.173V55.036h9.173V18.345ZM0,27.518V45.863H9.173V27.518Z" transform="translate(0 25.618)" fill="#97bed1"/>
        <path id="Icon_open-audio-spectrum-2" data-name="Icon open-audio-spectrum" d="M36.691,0V120.136h9.173V0ZM18.345,15.017v90.1h9.173v-90.1ZM55.036,30.034V90.1h9.173V30.034ZM0,45.051V75.085H9.173V45.051Z" transform="translate(73.381)" fill="#97bed1"/>
        <path id="Icon_open-audio-spectrum-3" data-name="Icon open-audio-spectrum" d="M36.691,0V50.229h9.173V0ZM18.345,6.279V43.95h9.173V6.279Zm36.691,6.279V37.672h9.173V12.557ZM0,18.836V31.393H9.173V18.836Z" transform="translate(143.572 36.009)" fill="#97bed1"/>
      </g>
      <g id="Сгруппировать_22" data-name="Сгруппировать 22" transform="translate(581.375 479.784)">
        <path id="Icon_open-audio-spectrum-4" data-name="Icon open-audio-spectrum" d="M36.691,0V73.381h9.173V0ZM18.345,9.173V64.208h9.173V9.173Zm36.691,9.173V55.036h9.173V18.345ZM0,27.518V45.863H9.173V27.518Z" transform="translate(0 25.618)" fill="#97bed1"/>
        <path id="Icon_open-audio-spectrum-5" data-name="Icon open-audio-spectrum" d="M36.691,0V120.136h9.173V0ZM18.345,15.017v90.1h9.173v-90.1ZM55.036,30.034V90.1h9.173V30.034ZM0,45.051V75.085H9.173V45.051Z" transform="translate(73.381)" fill="#97bed1"/>
        <path id="Icon_open-audio-spectrum-6" data-name="Icon open-audio-spectrum" d="M36.691,0V50.229h9.173V0ZM18.345,6.279V43.95h9.173V6.279Zm36.691,6.279V37.672h9.173V12.557ZM0,18.836V31.393H9.173V18.836Z" transform="translate(143.572 36.009)" fill="#97bed1"/>
      </g>
      <g id="Сгруппировать_23" data-name="Сгруппировать 23" transform="translate(795.138 479.784)">
        <path id="Icon_open-audio-spectrum-7" data-name="Icon open-audio-spectrum" d="M36.691,0V73.381h9.173V0ZM18.345,9.173V64.208h9.173V9.173Zm36.691,9.173V55.036h9.173V18.345ZM0,27.518V45.863H9.173V27.518Z" transform="translate(0 25.618)" fill="#97bed1"/>
        <path id="Icon_open-audio-spectrum-8" data-name="Icon open-audio-spectrum" d="M36.691,0V120.136h9.173V0ZM18.345,15.017v90.1h9.173v-90.1ZM55.036,30.034V90.1h9.173V30.034ZM0,45.051V75.085H9.173V45.051Z" transform="translate(73.381)" fill="#97bed1"/>
        <path id="Icon_open-audio-spectrum-9" data-name="Icon open-audio-spectrum" d="M36.691,0V50.229h9.173V0ZM18.345,6.279V43.95h9.173V6.279Zm36.691,6.279V37.672h9.173V12.557ZM0,18.836V31.393H9.173V18.836Z" transform="translate(143.572 36.009)" fill="#dbebf3"/>
      </g>
      <g id="Сгруппировать_24" data-name="Сгруппировать 24" transform="translate(1012.088 479.784)">
        <path id="Icon_open-audio-spectrum-10" data-name="Icon open-audio-spectrum" d="M36.691,0V73.381h9.173V0ZM18.345,9.173V64.208h9.173V9.173Zm36.691,9.173V55.036h9.173V18.345ZM0,27.518V45.863H9.173V27.518Z" transform="translate(0 25.618)" fill="#dbebf3"/>
        <path id="Icon_open-audio-spectrum-11" data-name="Icon open-audio-spectrum" d="M36.691,0V120.136h9.173V0ZM18.345,15.017v90.1h9.173v-90.1ZM55.036,30.034V90.1h9.173V30.034ZM0,45.051V75.085H9.173V45.051Z" transform="translate(73.381)" fill="#dbebf3"/>
        <path id="Icon_open-audio-spectrum-12" data-name="Icon open-audio-spectrum" d="M36.691,0V50.229h9.173V0ZM18.345,6.279V43.95h9.173V6.279Zm36.691,6.279V37.672h9.173V12.557ZM0,18.836V31.393H9.173V18.836Z" transform="translate(143.572 36.009)" fill="#dbebf3"/>
      </g>
      <g id="Сгруппировать_413" data-name="Сгруппировать 413" transform="translate(1228.088 479.784)">
        <path id="Icon_open-audio-spectrum-13" data-name="Icon open-audio-spectrum" d="M36.691,0V73.381h9.173V0ZM18.345,9.173V64.208h9.173V9.173Zm36.691,9.173V55.036h9.173V18.345ZM0,27.518V45.863H9.173V27.518Z" transform="translate(0 25.618)" fill="#dbebf3"/>
        <path id="Icon_open-audio-spectrum-14" data-name="Icon open-audio-spectrum" d="M36.691,0V120.136h9.173V0ZM18.345,15.017v90.1h9.173v-90.1ZM55.036,30.034V90.1h9.173V30.034ZM0,45.051V75.085H9.173V45.051Z" transform="translate(73.381)" fill="#dbebf3"/>
        <path id="Icon_open-audio-spectrum-15" data-name="Icon open-audio-spectrum" d="M36.691,0V50.229h9.173V0ZM18.345,6.279V43.95h9.173V6.279Zm36.691,6.279V37.672h9.173V12.557ZM0,18.836V31.393H9.173V18.836Z" transform="translate(143.572 36.009)" fill="#dbebf3"/>
      </g>
      <g id="Сгруппировать_414" data-name="Сгруппировать 414" transform="translate(1444.088 479.784)">
        <path id="Icon_open-audio-spectrum-16" data-name="Icon open-audio-spectrum" d="M36.691,0V73.381h9.173V0ZM18.345,9.173V64.208h9.173V9.173Zm36.691,9.173V55.036h9.173V18.345ZM0,27.518V45.863H9.173V27.518Z" transform="translate(0 25.618)" fill="#dbebf3"/>
        <path id="Icon_open-audio-spectrum-17" data-name="Icon open-audio-spectrum" d="M36.691,0V120.136h9.173V0ZM18.345,15.017v90.1h9.173v-90.1ZM55.036,30.034V90.1h9.173V30.034ZM0,45.051V75.085H9.173V45.051Z" transform="translate(73.381)" fill="#dbebf3"/>
      </g>
      <g id="Прямоугольник_34" data-name="Прямоугольник 34" transform="translate(344 459)" fill="none" stroke="#97bed1" stroke-width="1">
        <rect width="20" height="161" rx="5" stroke="none"/>
        <rect x="0.5" y="0.5" width="19" height="160" rx="4.5" fill="none"/>
      </g>
      <g id="Сгруппировать_416" data-name="Сгруппировать 416" transform="translate(60 183)">
        <circle id="Эллипс_1" data-name="Эллипс 1" cx="2.5" cy="2.5" r="2.5" transform="translate(291 364)" fill="#97bed1"/>
        <circle id="Эллипс_2" data-name="Эллипс 2" cx="2.5" cy="2.5" r="2.5" transform="translate(291 354)" fill="#97bed1"/>
        <circle id="Эллипс_3" data-name="Эллипс 3" cx="2.5" cy="2.5" r="2.5" transform="translate(291 344)" fill="#97bed1"/>
      </g>
      <g id="Сгруппировать_418" data-name="Сгруппировать 418" transform="translate(650 207)">
        <g id="Прямоугольник_34-2" data-name="Прямоугольник 34" transform="translate(284 252)" fill="#fff" stroke="#97bed1" stroke-width="1">
          <rect width="20" height="161" rx="5" stroke="none"/>
          <rect x="0.5" y="0.5" width="19" height="160" rx="4.5" fill="none"/>
        </g>
        <g id="Сгруппировать_416-2" data-name="Сгруппировать 416" transform="translate(0 -24)">
          <circle id="Эллипс_1-2" data-name="Эллипс 1" cx="2.5" cy="2.5" r="2.5" transform="translate(291 364)" fill="#97bed1"/>
          <circle id="Эллипс_2-2" data-name="Эллипс 2" cx="2.5" cy="2.5" r="2.5" transform="translate(291 354)" fill="#97bed1"/>
          <circle id="Эллипс_3-2" data-name="Эллипс 3" cx="2.5" cy="2.5" r="2.5" transform="translate(291 344)" fill="#97bed1"/>
        </g>
      </g>
    </g>
    <text id="_1:30" data-name="1:30" transform="translate(343 637)" fill="#97d1c7" font-size="12" font-family="SegoeUI, Segoe UI"><tspan x="0" y="0">1:30</tspan></text>
    <text id="_2:27" data-name="2:27" transform="translate(933 637)" fill="#97d1c7" font-size="12" font-family="SegoeUI, Segoe UI"><tspan x="0" y="0">2:27</tspan></text>
  </g>
</svg>
