<svg xmlns="http://www.w3.org/2000/svg" width="16" height="23.273" viewBox="0 0 16 23.273">
  <path id="Icon_awesome-microphone" data-name="Icon awesome-microphone" d="M8,16a4.364,4.364,0,0,0,4.364-4.364V4.364a4.364,4.364,0,1,0-8.727,0v7.273A4.364,4.364,0,0,0,8,16Zm7.273-7.273h-.727a.727.727,0,0,0-.727.727v2.182a5.825,5.825,0,0,1-6.4,5.79,6,6,0,0,1-5.237-6.049V9.455a.727.727,0,0,0-.727-.727H.727A.727.727,0,0,0,0,9.455V11.28a8.25,8.25,0,0,0,6.909,8.259v1.552H4.364a.727.727,0,0,0-.727.727v.727a.727.727,0,0,0,.727.727h7.273a.727.727,0,0,0,.727-.727v-.727a.727.727,0,0,0-.727-.727H9.091V19.556A8.008,8.008,0,0,0,16,11.636V9.455A.727.727,0,0,0,15.273,8.727Z" fill="#abd3cb"/>
</svg>
