<svg xmlns="http://www.w3.org/2000/svg" width="319" height="43" viewBox="0 0 319 43">
  <g id="Сгруппировать_573" data-name="Сгруппировать 573" transform="translate(-1421 -482)">
    <g id="Прямоугольник_56" data-name="Прямоугольник 56" transform="translate(1421 482)" fill="#fff" stroke="#abd3cb" stroke-width="1">
      <rect width="319" height="43" rx="5" stroke="none"/>
      <rect x="0.5" y="0.5" width="318" height="42" rx="4.5" fill="none"/>
    </g>
    <g id="Сгруппировать_479" data-name="Сгруппировать 479" transform="translate(-5.562 184)">
      <g id="Сгруппировать_473" data-name="Сгруппировать 473" transform="translate(1439.562 304.115)">
        <g id="Сгруппировать_471" data-name="Сгруппировать 471">
          <path id="Icon_open-audio-spectrum" data-name="Icon open-audio-spectrum" d="M10.024,0V20.048H12.53V0ZM5.012,2.506V17.542H7.518V2.506ZM15.036,5.012V15.036h2.506V5.012ZM0,7.518V12.53H2.506V7.518Z" transform="translate(0 6.999)" fill="#97bed1"/>
          <path id="Icon_open-audio-spectrum-2" data-name="Icon open-audio-spectrum" d="M10.024,0V32.822H12.53V0ZM5.012,4.1V28.719H7.518V4.1Zm10.024,4.1V24.616h2.506V8.205ZM0,12.308v8.205H2.506V12.308Z" transform="translate(20.048)" fill="#97bed1"/>
          <path id="Icon_open-audio-spectrum-3" data-name="Icon open-audio-spectrum" d="M10.024,0V13.723H12.53V0ZM5.012,1.715V12.007H7.518V1.715ZM15.036,3.431v6.861h2.506V3.431ZM0,5.146V8.577H2.506V5.146Z" transform="translate(39.224 9.838)" fill="#97bed1"/>
        </g>
        <g id="Сгруппировать_472" data-name="Сгруппировать 472" transform="translate(59.272)">
          <path id="Icon_open-audio-spectrum-4" data-name="Icon open-audio-spectrum" d="M10.024,0V20.048H12.53V0ZM5.012,2.506V17.542H7.518V2.506ZM15.036,5.012V15.036h2.506V5.012ZM0,7.518V12.53H2.506V7.518Z" transform="translate(0 6.999)" fill="#97bed1"/>
          <path id="Icon_open-audio-spectrum-5" data-name="Icon open-audio-spectrum" d="M10.024,0V32.822H12.53V0ZM5.012,4.1V28.719H7.518V4.1Zm10.024,4.1V24.616h2.506V8.205ZM0,12.308v8.205H2.506V12.308Z" transform="translate(20.048)" fill="#97bed1"/>
          <path id="Icon_open-audio-spectrum-6" data-name="Icon open-audio-spectrum" d="M10.024,0V13.723H12.53V0ZM5.012,1.715V12.007H7.518V1.715ZM15.036,3.431v6.861h2.506V3.431ZM0,5.146V8.577H2.506V5.146Z" transform="translate(39.224 9.838)" fill="#97bed1"/>
        </g>
      </g>
      <g id="Сгруппировать_477" data-name="Сгруппировать 477" transform="translate(1558.562 304.115)">
        <g id="Сгруппировать_471-2" data-name="Сгруппировать 471">
          <path id="Icon_open-audio-spectrum-7" data-name="Icon open-audio-spectrum" d="M10.024,0V20.048H12.53V0ZM5.012,2.506V17.542H7.518V2.506ZM15.036,5.012V15.036h2.506V5.012ZM0,7.518V12.53H2.506V7.518Z" transform="translate(0 6.999)" fill="#97bed1"/>
          <path id="Icon_open-audio-spectrum-8" data-name="Icon open-audio-spectrum" d="M10.024,0V32.822H12.53V0ZM5.012,4.1V28.719H7.518V4.1Zm10.024,4.1V24.616h2.506V8.205ZM0,12.308v8.205H2.506V12.308Z" transform="translate(20.048)" fill="#97bed1"/>
          <path id="Icon_open-audio-spectrum-9" data-name="Icon open-audio-spectrum" d="M10.024,0V13.723H12.53V0ZM5.012,1.715V12.007H7.518V1.715ZM15.036,3.431v6.861h2.506V3.431ZM0,5.146V8.577H2.506V5.146Z" transform="translate(39.224 9.838)" fill="#97bed1"/>
        </g>
        <g id="Сгруппировать_472-2" data-name="Сгруппировать 472" transform="translate(59.272)">
          <path id="Icon_open-audio-spectrum-10" data-name="Icon open-audio-spectrum" d="M10.024,0V20.048H12.53V0ZM5.012,2.506V17.542H7.518V2.506ZM15.036,5.012V15.036h2.506V5.012ZM0,7.518V12.53H2.506V7.518Z" transform="translate(0 6.999)" fill="#97bed1"/>
          <path id="Icon_open-audio-spectrum-11" data-name="Icon open-audio-spectrum" d="M10.024,0V32.822H12.53V0ZM5.012,4.1V28.719H7.518V4.1Zm10.024,4.1V24.616h2.506V8.205ZM0,12.308v8.205H2.506V12.308Z" transform="translate(20.048)" fill="#97bed1"/>
          <path id="Icon_open-audio-spectrum-12" data-name="Icon open-audio-spectrum" d="M10.024,0V13.723H12.53V0ZM5.012,1.715V12.007H7.518V1.715ZM15.036,3.431v6.861h2.506V3.431ZM0,5.146V8.577H2.506V5.146Z" transform="translate(39.224 9.838)" fill="#97bed1"/>
        </g>
      </g>
      <g id="Сгруппировать_478" data-name="Сгруппировать 478" transform="translate(1676.562 304.115)">
        <g id="Сгруппировать_471-3" data-name="Сгруппировать 471">
          <path id="Icon_open-audio-spectrum-13" data-name="Icon open-audio-spectrum" d="M10.024,0V20.048H12.53V0ZM5.012,2.506V17.542H7.518V2.506ZM15.036,5.012V15.036h2.506V5.012ZM0,7.518V12.53H2.506V7.518Z" transform="translate(0 6.999)" fill="#97bed1"/>
          <path id="Icon_open-audio-spectrum-14" data-name="Icon open-audio-spectrum" d="M10.024,0V32.822H12.53V0ZM5.012,4.1V28.719H7.518V4.1Zm10.024,4.1V24.616h2.506V8.205ZM0,12.308v8.205H2.506V12.308Z" transform="translate(20.048)" fill="#97bed1"/>
          <path id="Icon_open-audio-spectrum-15" data-name="Icon open-audio-spectrum" d="M10.024,0V13.723H12.53V0ZM5.012,1.715V12.007H7.518V1.715ZM15.036,3.431v6.861h2.506V3.431ZM0,5.146V8.577H2.506V5.146Z" transform="translate(39.224 9.838)" fill="#97bed1"/>
        </g>
      </g>
    </g>
  </g>
</svg>
