<svg xmlns="http://www.w3.org/2000/svg" width="14.74" height="13.687" viewBox="0 0 14.74 13.687">
  <path id="Icon_ionic-ios-star" data-name="Icon ionic-ios-star" d="M16.431,8.113h-4.84L10.12,3.724a.533.533,0,0,0-1,0L7.649,8.113H2.776a.528.528,0,0,0-.526.526.387.387,0,0,0,.01.089.506.506,0,0,0,.22.372l3.978,2.8L4.932,16.342a.528.528,0,0,0,.181.592.509.509,0,0,0,.3.128.645.645,0,0,0,.329-.118L9.62,14.177,13.5,16.944a.617.617,0,0,0,.329.118.473.473,0,0,0,.293-.128.522.522,0,0,0,.181-.592L12.779,11.9l3.945-2.83.1-.082a.5.5,0,0,0-.388-.878Z" transform="translate(-2.25 -3.375)" fill="#e6e7d0"/>
</svg>
