<svg xmlns="http://www.w3.org/2000/svg" width="14.2" height="16" viewBox="0 0 14.2 16">
  <g id="Сгруппировать_1" data-name="Сгруппировать 1" transform="translate(-1704.9 -130)">
    <path id="Контур_108" data-name="Контур 108" d="M1717.19,134.513h-10.38a.429.429,0,0,0-.31.1.352.352,0,0,0-.1.308l1.07,9.292A2.028,2.028,0,0,0,1709.5,146h5.17a2.033,2.033,0,0,0,2.05-1.846l.88-9.272a.336.336,0,0,0-.1-.267A.429.429,0,0,0,1717.19,134.513Zm-1.29,9.6a1.2,1.2,0,0,1-1.23,1.066h-5.17a1.164,1.164,0,0,1-1.21-1.046l-1.03-8.8h9.48Z" fill="#97d1c7"/>
    <path id="Контур_109" data-name="Контур 109" d="M1718.69,131.846h-4.23v-.656a1.149,1.149,0,0,0-1.11-1.189h-2.64a1.144,1.144,0,0,0-1.17,1.127v.719h-4.23a.411.411,0,0,0,0,.821h13.38a.411.411,0,0,0,0-.821Zm-5.05-.656v.656h-3.28v-.656a.327.327,0,0,1,.35-.369h2.58a.326.326,0,0,1,.35.3Z" fill="#97d1c7"/>
  </g>
</svg>
