<svg xmlns="http://www.w3.org/2000/svg" width="18" height="14.897" viewBox="0 0 18 14.897">
  <g id="Сгруппировать_1" data-name="Сгруппировать 1" transform="translate(-171 -173.545)">
    <path id="Контур_2" data-name="Контур 2" d="M188.648,180.682h-1.16v-1.043a.353.353,0,0,0-.352-.352h-.8a6.53,6.53,0,0,0-.622-1.5l.566-.566a.351.351,0,0,0,0-.5l-1.972-1.972a.35.35,0,0,0-.5,0l-.567.566a6.484,6.484,0,0,0-1.5-.622v-.8a.352.352,0,0,0-.352-.352h-2.788a.352.352,0,0,0-.352.352v.8a6.51,6.51,0,0,0-1.5.622l-.566-.566a.35.35,0,0,0-.5,0l-1.972,1.972a.349.349,0,0,0-.1.248.353.353,0,0,0,.1.249l.566.566a6.5,6.5,0,0,0-.622,1.5h-.8a.353.353,0,0,0-.352.352v1.043h-1.16a.351.351,0,1,0,0,.7h7.242a.351.351,0,0,0,0-.7h-1.516a2.943,2.943,0,0,1,5.844,0h-1.516a.351.351,0,0,0,0,.7h7.242a.351.351,0,1,0,0-.7Zm-8.648-3.3a3.652,3.652,0,0,0-3.63,3.3h-3.155v-.691h.722a.353.353,0,0,0,.343-.274,5.847,5.847,0,0,1,.745-1.8.352.352,0,0,0-.049-.436l-.511-.511,1.475-1.475.511.512a.352.352,0,0,0,.435.049,5.821,5.821,0,0,1,1.8-.746.351.351,0,0,0,.273-.343v-.721h2.086v.721a.351.351,0,0,0,.273.343,5.821,5.821,0,0,1,1.8.746.352.352,0,0,0,.435-.049l.511-.512,1.475,1.475-.511.511a.352.352,0,0,0-.049.436,5.823,5.823,0,0,1,.745,1.8.353.353,0,0,0,.343.273h.722v.691H183.63A3.652,3.652,0,0,0,180,177.386Z" fill="#97d1c7" fill-rule="evenodd"/>
    <path id="Контур_3" data-name="Контур 3" d="M174.54,183.385h.742a.755.755,0,0,1,.754.754.352.352,0,1,0,.7,0,1.459,1.459,0,0,0-1.457-1.458h-.742a1.46,1.46,0,0,0-1.458,1.458v2.69a1.46,1.46,0,0,0,1.458,1.458h.742a1.459,1.459,0,0,0,1.457-1.458.352.352,0,1,0-.7,0,.755.755,0,0,1-.754.755h-.742a.756.756,0,0,1-.755-.755v-2.69A.755.755,0,0,1,174.54,183.385Z" fill="#97d1c7" fill-rule="evenodd"/>
    <path id="Контур_4" data-name="Контур 4" d="M182.422,182.752a.354.354,0,0,0-.4.168l-1.829,3.261-1.83-3.261a.352.352,0,0,0-.658.172v4.784a.352.352,0,1,0,.7,0v-3.439l1.478,2.635a.352.352,0,0,0,.613,0l1.478-2.635v3.439a.352.352,0,0,0,.7,0v-4.784A.351.351,0,0,0,182.422,182.752Z" fill="#97d1c7" fill-rule="evenodd"/>
    <path id="Контур_5" data-name="Контур 5" d="M185.263,185.133a.951.951,0,1,1,.775-1.5.351.351,0,1,0,.572-.408,1.654,1.654,0,1,0-1.347,2.615.951.951,0,1,1-.843,1.393.351.351,0,1,0-.622.327,1.655,1.655,0,1,0,1.465-2.423Z" fill="#97d1c7" fill-rule="evenodd"/>
    <path id="Контур_6" data-name="Контур 6" d="M180.352,181.033a.352.352,0,1,0-.352.352A.352.352,0,0,0,180.352,181.033Z" fill="#97d1c7" fill-rule="evenodd"/>
  </g>
</svg>
