<svg xmlns="http://www.w3.org/2000/svg" width="39.918" height="39.917" viewBox="0 0 39.918 39.917">
  <path id="Контур_1" data-name="Контур 1" d="M194.38,46.142a19.95,19.95,0,1,0-28.238,28.177c.011.011.016.028.027.038.115.111.241.205.358.312.32.285.641.58.979.855.181.143.369.285.554.416.32.238.639.476.972.7.227.143.461.285.693.428.308.185.614.372.932.542.269.143.544.265.818.395.3.143.594.285.9.413s.614.228.925.339.578.214.876.3c.336.1.681.18,1.023.264.285.07.562.15.856.207.393.078.792.128,1.191.182.247.034.487.083.737.107.653.064,1.311.1,1.975.1s1.323-.036,1.975-.1c.25-.024.491-.073.737-.107.4-.054.8-.1,1.192-.182.285-.057.57-.143.855-.207.342-.084.687-.163,1.023-.264.3-.091.586-.2.877-.3s.621-.214.924-.339.6-.272.9-.413c.274-.13.549-.252.818-.395.318-.17.624-.356.932-.542.233-.143.466-.272.693-.428.333-.219.653-.457.972-.7.185-.143.373-.271.554-.416.338-.271.659-.559.979-.855.117-.107.243-.2.358-.312.012-.01.016-.027.027-.038A19.928,19.928,0,0,0,194.38,46.142Zm-3.2,26.684c-.259.228-.527.445-.8.654-.16.123-.319.244-.483.361-.258.187-.52.363-.787.533-.194.124-.392.244-.591.361q-.377.214-.764.428c-.228.117-.461.227-.694.335s-.492.224-.744.325-.521.2-.784.285c-.241.083-.482.168-.726.241-.285.086-.583.155-.878.227-.231.054-.459.115-.692.161-.338.066-.683.111-1.029.158-.2.026-.392.061-.59.081-.548.053-1.1.084-1.662.084s-1.115-.031-1.662-.084c-.2-.02-.393-.056-.59-.081-.346-.047-.691-.093-1.029-.158-.234-.046-.462-.107-.693-.161-.295-.071-.588-.143-.877-.227-.244-.073-.485-.158-.726-.241-.264-.091-.527-.184-.784-.285s-.5-.212-.744-.325-.466-.218-.694-.335c-.258-.134-.513-.275-.764-.428-.2-.117-.4-.237-.591-.361-.267-.17-.529-.346-.787-.533-.164-.117-.323-.238-.483-.361-.271-.209-.539-.427-.8-.654-.063-.047-.12-.107-.181-.161a11.434,11.434,0,0,1,7.772-10.682,8.448,8.448,0,0,0,7.259,0,11.434,11.434,0,0,1,7.772,10.682C191.295,72.719,191.238,72.774,191.177,72.826Zm-16.193-21.4a5.7,5.7,0,1,1,7.763,7.763.029.029,0,0,0-.024.008,6.043,6.043,0,0,1-1.192.5c-.074.021-.142.05-.221.068-.142.037-.292.063-.439.088a5.776,5.776,0,0,1-.836.084h-.163a5.776,5.776,0,0,1-.836-.084c-.143-.026-.294-.051-.439-.088-.076-.018-.143-.047-.221-.068a6.043,6.043,0,0,1-1.192-.5l-.025-.008A5.7,5.7,0,0,1,174.984,51.427Zm18.9,18.412a14.32,14.32,0,0,0-7.63-9.824,8.551,8.551,0,1,0-12.6,0,14.321,14.321,0,0,0-7.63,9.824,17.1,17.1,0,1,1,27.859,0Z" transform="translate(-160 -40)" fill="#d9eeea"/>
</svg>
