<svg xmlns="http://www.w3.org/2000/svg" width="26.606" height="30" viewBox="0 0 26.606 30">
  <g id="Сгруппировать_567" data-name="Сгруппировать 567" transform="translate(-1722 -585)">
    <path id="Контур_46" data-name="Контур 46" d="M1725.735,583.514h-19.462a.778.778,0,0,0-.581.191.659.659,0,0,0-.187.578l1.988,17.422a3.817,3.817,0,0,0,3.806,3.347h9.694a3.83,3.83,0,0,0,3.862-3.461l1.65-17.385a.645.645,0,0,0-.206-.5A.735.735,0,0,0,1725.735,583.514Zm-2.437,18a2.221,2.221,0,0,1-2.306,2H1711.3a2.207,2.207,0,0,1-2.269-1.961l-1.912-16.5h17.774Z" transform="translate(19.308 9.947)" fill="#abd3cb"/>
    <path id="Контур_47" data-name="Контур 47" d="M1729.837,582.461h-7.912v-1.23a2.155,2.155,0,0,0-2.081-2.229c-.037,0-.075,0-.113,0h-4.856a2.141,2.141,0,0,0-2.175,2.113c-.019.039,0,.079,0,.118v1.23h-7.931a.77.77,0,0,0,0,1.539h25.068a.77.77,0,0,0,0-1.539Zm-9.45-1.23v1.23h-6.15v-1.23a.6.6,0,0,1,.525-.688.457.457,0,0,1,.113,0h4.856a.612.612,0,0,1,.656.57Z" transform="translate(18 6)" fill="#abd3cb"/>
  </g>
</svg>
