<svg xmlns="http://www.w3.org/2000/svg" width="30" height="30" viewBox="0 0 30 30">
  <g id="Сгруппировать_239" data-name="Сгруппировать 239" transform="translate(-558 -451)">
    <rect id="Прямоугольник_5" data-name="Прямоугольник 5" width="30" height="30" rx="5" transform="translate(558 451)" fill="#97d1c7"/>
    <g id="_001-shuffle" data-name="001-shuffle" transform="translate(565 408.803)">
      <g id="Сгруппировать_207" data-name="Сгруппировать 207" transform="translate(0 51.197)">
        <g id="Сгруппировать_206" data-name="Сгруппировать 206" transform="translate(0 0)">
          <path id="Контур_44" data-name="Контур 44" d="M15.833,53.644h0l-2.286-2.286a.571.571,0,0,0-.808.808l1.311,1.311H10.857a4,4,0,0,0-4,4A2.86,2.86,0,0,1,4,60.334H.571a.571.571,0,1,0,0,1.143H4a4,4,0,0,0,4-4,2.86,2.86,0,0,1,2.857-2.857h3.192l-1.31,1.31a.571.571,0,0,0,.794.822l.014-.014,2.286-2.286A.571.571,0,0,0,15.833,53.644Z" transform="translate(0 -51.197)" fill="#fff"/>
        </g>
      </g>
      <g id="Сгруппировать_209" data-name="Сгруппировать 209" transform="translate(8.003 58.054)">
        <g id="Сгруппировать_208" data-name="Сгруппировать 208" transform="translate(0 0)">
          <path id="Контур_45" data-name="Контур 45" d="M246.866,258.445h0l-2.286-2.286a.571.571,0,0,0-.808.808l1.311,1.311H241.89a2.853,2.853,0,0,1-1.905-.727.571.571,0,0,0-.762.851,3.994,3.994,0,0,0,2.667,1.019h3.192l-1.31,1.31a.571.571,0,1,0,.794.822l.014-.014,2.286-2.286A.571.571,0,0,0,246.866,258.445Z" transform="translate(-239.036 -255.998)" fill="#fff"/>
        </g>
      </g>
      <g id="Сгруппировать_211" data-name="Сгруппировать 211" transform="translate(0 53.477)">
        <g id="Сгруппировать_210" data-name="Сгруппировать 210">
          <path id="Контур_46" data-name="Контур 46" d="M6.667,120.291A3.994,3.994,0,0,0,4,119.272H.571a.571.571,0,1,0,0,1.143H4a2.853,2.853,0,0,1,1.905.727.571.571,0,0,0,.762-.851Z" transform="translate(0 -119.272)" fill="#fff"/>
        </g>
      </g>
    </g>
  </g>
</svg>
