<svg xmlns="http://www.w3.org/2000/svg" width="14" height="14" viewBox="0 0 14 14">
  <path id="Icon_awesome-save" data-name="Icon awesome-save" d="M13.561,5.311,10.939,2.689A1.5,1.5,0,0,0,9.879,2.25H1.5A1.5,1.5,0,0,0,0,3.75v11a1.5,1.5,0,0,0,1.5,1.5h11a1.5,1.5,0,0,0,1.5-1.5V6.371a1.5,1.5,0,0,0-.439-1.061ZM7,14.25a2,2,0,1,1,2-2A2,2,0,0,1,7,14.25Zm3-9.516V7.875a.375.375,0,0,1-.375.375H2.375A.375.375,0,0,1,2,7.875V4.625a.375.375,0,0,1,.375-.375H9.516a.375.375,0,0,1,.265.11l.109.109a.375.375,0,0,1,.11.265Z" transform="translate(0 -2.25)" fill="#97d1c7"/>
</svg>
