<svg xmlns="http://www.w3.org/2000/svg" width="40" height="785" viewBox="0 0 40 785">
  <g id="Сгруппировать_574" data-name="Сгруппировать 574" transform="translate(-260 -295)">
    <rect id="Прямоугольник_3" data-name="Прямоугольник 3" width="40" height="785" rx="5" transform="translate(260 295)" fill="#fff"/>
    <g id="Сгруппировать_486" data-name="Сгруппировать 486" transform="translate(600.409 -1133.919) rotate(90)">
      <g id="Сгруппировать_473" data-name="Сгруппировать 473" transform="translate(1439.562 304.115)">
        <g id="Сгруппировать_471" data-name="Сгруппировать 471">
          <path id="Icon_open-audio-spectrum" data-name="Icon open-audio-spectrum" d="M10.024,0V20.048H12.53V0ZM5.012,2.506V17.542H7.518V2.506ZM15.036,5.012V15.036h2.506V5.012ZM0,7.518V12.53H2.506V7.518Z" transform="translate(0 6.999)" fill="#97d1aa"/>
          <path id="Icon_open-audio-spectrum-2" data-name="Icon open-audio-spectrum" d="M10.024,0V32.822H12.53V0ZM5.012,4.1V28.719H7.518V4.1Zm10.024,4.1V24.616h2.506V8.205ZM0,12.308v8.205H2.506V12.308Z" transform="translate(20.048)" fill="#97d1aa"/>
          <path id="Icon_open-audio-spectrum-3" data-name="Icon open-audio-spectrum" d="M10.024,0V13.723H12.53V0ZM5.012,1.715V12.007H7.518V1.715ZM15.036,3.431v6.861h2.506V3.431ZM0,5.146V8.577H2.506V5.146Z" transform="translate(39.224 9.838)" fill="#97d1aa"/>
        </g>
        <g id="Сгруппировать_472" data-name="Сгруппировать 472" transform="translate(59.272)">
          <path id="Icon_open-audio-spectrum-4" data-name="Icon open-audio-spectrum" d="M10.024,0V20.048H12.53V0ZM5.012,2.506V17.542H7.518V2.506ZM15.036,5.012V15.036h2.506V5.012ZM0,7.518V12.53H2.506V7.518Z" transform="translate(0 6.999)" fill="#97d1aa"/>
          <path id="Icon_open-audio-spectrum-5" data-name="Icon open-audio-spectrum" d="M10.024,0V32.822H12.53V0ZM5.012,4.1V28.719H7.518V4.1Zm10.024,4.1V24.616h2.506V8.205ZM0,12.308v8.205H2.506V12.308Z" transform="translate(20.048)" fill="#97d1aa"/>
          <path id="Icon_open-audio-spectrum-6" data-name="Icon open-audio-spectrum" d="M10.024,0V13.723H12.53V0ZM5.012,1.715V12.007H7.518V1.715ZM15.036,3.431v6.861h2.506V3.431ZM0,5.146V8.577H2.506V5.146Z" transform="translate(39.224 9.838)" fill="#97d1aa"/>
        </g>
      </g>
      <g id="Сгруппировать_477" data-name="Сгруппировать 477" transform="translate(1558.562 304.115)">
        <g id="Сгруппировать_471-2" data-name="Сгруппировать 471">
          <path id="Icon_open-audio-spectrum-7" data-name="Icon open-audio-spectrum" d="M10.024,0V20.048H12.53V0ZM5.012,2.506V17.542H7.518V2.506ZM15.036,5.012V15.036h2.506V5.012ZM0,7.518V12.53H2.506V7.518Z" transform="translate(0 6.999)" fill="#97bed1"/>
          <path id="Icon_open-audio-spectrum-8" data-name="Icon open-audio-spectrum" d="M10.024,0V32.822H12.53V0ZM5.012,4.1V28.719H7.518V4.1Zm10.024,4.1V24.616h2.506V8.205ZM0,12.308v8.205H2.506V12.308Z" transform="translate(20.048)" fill="#97bed1"/>
          <path id="Icon_open-audio-spectrum-9" data-name="Icon open-audio-spectrum" d="M10.024,0V13.723H12.53V0ZM5.012,1.715V12.007H7.518V1.715ZM15.036,3.431v6.861h2.506V3.431ZM0,5.146V8.577H2.506V5.146Z" transform="translate(39.224 9.838)" fill="#97bed1"/>
        </g>
        <g id="Сгруппировать_472-2" data-name="Сгруппировать 472" transform="translate(59.272)">
          <path id="Icon_open-audio-spectrum-10" data-name="Icon open-audio-spectrum" d="M10.024,0V20.048H12.53V0ZM5.012,2.506V17.542H7.518V2.506ZM15.036,5.012V15.036h2.506V5.012ZM0,7.518V12.53H2.506V7.518Z" transform="translate(0 6.999)" fill="#97bed1"/>
          <path id="Icon_open-audio-spectrum-11" data-name="Icon open-audio-spectrum" d="M10.024,0V32.822H12.53V0ZM5.012,4.1V28.719H7.518V4.1Zm10.024,4.1V24.616h2.506V8.205ZM0,12.308v8.205H2.506V12.308Z" transform="translate(20.048)" fill="#97bed1"/>
          <path id="Icon_open-audio-spectrum-12" data-name="Icon open-audio-spectrum" d="M10.024,0V13.723H12.53V0ZM5.012,1.715V12.007H7.518V1.715ZM15.036,3.431v6.861h2.506V3.431ZM0,5.146V8.577H2.506V5.146Z" transform="translate(39.224 9.838)" fill="#97bed1"/>
        </g>
      </g>
      <g id="Сгруппировать_478" data-name="Сгруппировать 478" transform="translate(1676.562 304.115)">
        <g id="Сгруппировать_471-3" data-name="Сгруппировать 471">
          <path id="Icon_open-audio-spectrum-13" data-name="Icon open-audio-spectrum" d="M10.024,0V20.048H12.53V0ZM5.012,2.506V17.542H7.518V2.506ZM15.036,5.012V15.036h2.506V5.012ZM0,7.518V12.53H2.506V7.518Z" transform="translate(0 6.999)" fill="#97bed1"/>
          <path id="Icon_open-audio-spectrum-14" data-name="Icon open-audio-spectrum" d="M10.024,0V32.822H12.53V0ZM5.012,4.1V28.719H7.518V4.1Zm10.024,4.1V24.616h2.506V8.205ZM0,12.308v8.205H2.506V12.308Z" transform="translate(20.048)" fill="#97bed1"/>
          <path id="Icon_open-audio-spectrum-15" data-name="Icon open-audio-spectrum" d="M10.024,0V13.723H12.53V0ZM5.012,1.715V12.007H7.518V1.715ZM15.036,3.431v6.861h2.506V3.431ZM0,5.146V8.577H2.506V5.146Z" transform="translate(39.224 9.838)" fill="#97bed1"/>
        </g>
      </g>
    </g>
    <g id="Сгруппировать_487" data-name="Сгруппировать 487" transform="translate(600.409 -836.919) rotate(90)">
      <g id="Сгруппировать_473-2" data-name="Сгруппировать 473" transform="translate(1439.562 304.115)">
        <g id="Сгруппировать_471-4" data-name="Сгруппировать 471">
          <path id="Icon_open-audio-spectrum-16" data-name="Icon open-audio-spectrum" d="M10.024,0V20.048H12.53V0ZM5.012,2.506V17.542H7.518V2.506ZM15.036,5.012V15.036h2.506V5.012ZM0,7.518V12.53H2.506V7.518Z" transform="translate(0 6.999)" fill="#97bed1"/>
          <path id="Icon_open-audio-spectrum-17" data-name="Icon open-audio-spectrum" d="M10.024,0V32.822H12.53V0ZM5.012,4.1V28.719H7.518V4.1Zm10.024,4.1V24.616h2.506V8.205ZM0,12.308v8.205H2.506V12.308Z" transform="translate(20.048)" fill="#97bed1"/>
          <path id="Icon_open-audio-spectrum-18" data-name="Icon open-audio-spectrum" d="M10.024,0V13.723H12.53V0ZM5.012,1.715V12.007H7.518V1.715ZM15.036,3.431v6.861h2.506V3.431ZM0,5.146V8.577H2.506V5.146Z" transform="translate(39.224 9.838)" fill="#97bed1"/>
        </g>
        <g id="Сгруппировать_472-3" data-name="Сгруппировать 472" transform="translate(59.272)">
          <path id="Icon_open-audio-spectrum-19" data-name="Icon open-audio-spectrum" d="M10.024,0V20.048H12.53V0ZM5.012,2.506V17.542H7.518V2.506ZM15.036,5.012V15.036h2.506V5.012ZM0,7.518V12.53H2.506V7.518Z" transform="translate(0 6.999)" fill="#97bed1"/>
          <path id="Icon_open-audio-spectrum-20" data-name="Icon open-audio-spectrum" d="M10.024,0V32.822H12.53V0ZM5.012,4.1V28.719H7.518V4.1Zm10.024,4.1V24.616h2.506V8.205ZM0,12.308v8.205H2.506V12.308Z" transform="translate(20.048)" fill="#97bed1"/>
          <path id="Icon_open-audio-spectrum-21" data-name="Icon open-audio-spectrum" d="M10.024,0V13.723H12.53V0ZM5.012,1.715V12.007H7.518V1.715ZM15.036,3.431v6.861h2.506V3.431ZM0,5.146V8.577H2.506V5.146Z" transform="translate(39.224 9.838)" fill="#97bed1"/>
        </g>
      </g>
      <g id="Сгруппировать_477-2" data-name="Сгруппировать 477" transform="translate(1558.562 304.115)">
        <g id="Сгруппировать_471-5" data-name="Сгруппировать 471">
          <path id="Icon_open-audio-spectrum-22" data-name="Icon open-audio-spectrum" d="M10.024,0V20.048H12.53V0ZM5.012,2.506V17.542H7.518V2.506ZM15.036,5.012V15.036h2.506V5.012ZM0,7.518V12.53H2.506V7.518Z" transform="translate(0 6.999)" fill="#97bed1"/>
          <path id="Icon_open-audio-spectrum-23" data-name="Icon open-audio-spectrum" d="M10.024,0V32.822H12.53V0ZM5.012,4.1V28.719H7.518V4.1Zm10.024,4.1V24.616h2.506V8.205ZM0,12.308v8.205H2.506V12.308Z" transform="translate(20.048)" fill="#97bed1"/>
          <path id="Icon_open-audio-spectrum-24" data-name="Icon open-audio-spectrum" d="M10.024,0V13.723H12.53V0ZM5.012,1.715V12.007H7.518V1.715ZM15.036,3.431v6.861h2.506V3.431ZM0,5.146V8.577H2.506V5.146Z" transform="translate(39.224 9.838)" fill="#97bed1"/>
        </g>
        <g id="Сгруппировать_472-4" data-name="Сгруппировать 472" transform="translate(59.272)">
          <path id="Icon_open-audio-spectrum-25" data-name="Icon open-audio-spectrum" d="M10.024,0V20.048H12.53V0ZM5.012,2.506V17.542H7.518V2.506ZM15.036,5.012V15.036h2.506V5.012ZM0,7.518V12.53H2.506V7.518Z" transform="translate(0 6.999)" fill="#97bed1"/>
          <path id="Icon_open-audio-spectrum-26" data-name="Icon open-audio-spectrum" d="M10.024,0V32.822H12.53V0ZM5.012,4.1V28.719H7.518V4.1Zm10.024,4.1V24.616h2.506V8.205ZM0,12.308v8.205H2.506V12.308Z" transform="translate(20.048)" fill="#97bed1"/>
          <path id="Icon_open-audio-spectrum-27" data-name="Icon open-audio-spectrum" d="M10.024,0V13.723H12.53V0ZM5.012,1.715V12.007H7.518V1.715ZM15.036,3.431v6.861h2.506V3.431ZM0,5.146V8.577H2.506V5.146Z" transform="translate(39.224 9.838)" fill="#97bed1"/>
        </g>
      </g>
      <g id="Сгруппировать_478-2" data-name="Сгруппировать 478" transform="translate(1676.562 304.115)">
        <g id="Сгруппировать_471-6" data-name="Сгруппировать 471">
          <path id="Icon_open-audio-spectrum-28" data-name="Icon open-audio-spectrum" d="M10.024,0V20.048H12.53V0ZM5.012,2.506V17.542H7.518V2.506ZM15.036,5.012V15.036h2.506V5.012ZM0,7.518V12.53H2.506V7.518Z" transform="translate(0 6.999)" fill="#97bed1"/>
          <path id="Icon_open-audio-spectrum-29" data-name="Icon open-audio-spectrum" d="M10.024,0V32.822H12.53V0ZM5.012,4.1V28.719H7.518V4.1Zm10.024,4.1V24.616h2.506V8.205ZM0,12.308v8.205H2.506V12.308Z" transform="translate(20.048)" fill="#97bed1"/>
          <path id="Icon_open-audio-spectrum-30" data-name="Icon open-audio-spectrum" d="M10.024,0V13.723H12.53V0ZM5.012,1.715V12.007H7.518V1.715ZM15.036,3.431v6.861h2.506V3.431ZM0,5.146V8.577H2.506V5.146Z" transform="translate(39.224 9.838)" fill="#97bed1"/>
        </g>
      </g>
    </g>
    <g id="Сгруппировать_473-3" data-name="Сгруппировать 473" transform="translate(296.294 899.643) rotate(90)">
      <g id="Сгруппировать_471-7" data-name="Сгруппировать 471">
        <path id="Icon_open-audio-spectrum-31" data-name="Icon open-audio-spectrum" d="M10.024,0V20.048H12.53V0ZM5.012,2.506V17.542H7.518V2.506ZM15.036,5.012V15.036h2.506V5.012ZM0,7.518V12.53H2.506V7.518Z" transform="translate(0 6.999)" fill="#97bed1"/>
        <path id="Icon_open-audio-spectrum-32" data-name="Icon open-audio-spectrum" d="M10.024,0V32.822H12.53V0ZM5.012,4.1V28.719H7.518V4.1Zm10.024,4.1V24.616h2.506V8.205ZM0,12.308v8.205H2.506V12.308Z" transform="translate(20.048)" fill="#97bed1"/>
        <path id="Icon_open-audio-spectrum-33" data-name="Icon open-audio-spectrum" d="M10.024,0V13.723H12.53V0ZM5.012,1.715V12.007H7.518V1.715ZM15.036,3.431v6.861h2.506V3.431ZM0,5.146V8.577H2.506V5.146Z" transform="translate(39.224 9.838)" fill="#97bed1"/>
      </g>
      <g id="Сгруппировать_472-5" data-name="Сгруппировать 472" transform="translate(59.272)">
        <path id="Icon_open-audio-spectrum-34" data-name="Icon open-audio-spectrum" d="M10.024,0V20.048H12.53V0ZM5.012,2.506V17.542H7.518V2.506ZM15.036,5.012V15.036h2.506V5.012ZM0,7.518V12.53H2.506V7.518Z" transform="translate(0 6.999)" fill="#97bed1"/>
        <path id="Icon_open-audio-spectrum-35" data-name="Icon open-audio-spectrum" d="M10.024,0V32.822H12.53V0ZM5.012,4.1V28.719H7.518V4.1Zm10.024,4.1V24.616h2.506V8.205ZM0,12.308v8.205H2.506V12.308Z" transform="translate(20.048)" fill="#97bed1"/>
        <path id="Icon_open-audio-spectrum-36" data-name="Icon open-audio-spectrum" d="M10.024,0V13.723H12.53V0ZM5.012,1.715V12.007H7.518V1.715ZM15.036,3.431v6.861h2.506V3.431ZM0,5.146V8.577H2.506V5.146Z" transform="translate(39.224 9.838)" fill="#97bed1"/>
      </g>
    </g>
    <g id="Сгруппировать_488" data-name="Сгруппировать 488" transform="translate(296.294 1018.643) rotate(90)">
      <g id="Сгруппировать_471-8" data-name="Сгруппировать 471">
        <path id="Icon_open-audio-spectrum-37" data-name="Icon open-audio-spectrum" d="M10.024,0V20.048H12.53V0ZM5.012,2.506V17.542H7.518V2.506ZM15.036,5.012V15.036h2.506V5.012ZM0,7.518V12.53H2.506V7.518Z" transform="translate(0 6.999)" fill="#97bed1"/>
        <path id="Icon_open-audio-spectrum-38" data-name="Icon open-audio-spectrum" d="M10.024,0V32.822H12.53V0ZM5.012,4.1V28.719H7.518V4.1Zm10.024,4.1V24.616h2.506V8.205ZM0,12.308v8.205H2.506V12.308Z" transform="translate(20.048)" fill="#97bed1"/>
        <path id="Icon_open-audio-spectrum-39" data-name="Icon open-audio-spectrum" d="M10.024,0V13.723H12.53V0ZM5.012,1.715V12.007H7.518V1.715ZM15.036,3.431v6.861h2.506V3.431ZM0,5.146V8.577H2.506V5.146Z" transform="translate(39.224 9.838)" fill="#97bed1"/>
      </g>
    </g>
  </g>
</svg>
